<svg width="19" height="27" viewBox="0 0 19 27" fill="none" xmlns="http://www.w3.org/2000/svg">
<path d="M9.5 0C4.24786 0 0 4.2255 0 9.45C0 16.5375 9.5 27 9.5 27C9.5 27 19 16.5375 19 9.45C19 4.2255 14.7521 0 9.5 0ZM9.5 12.825C8.60016 12.825 7.73717 12.4694 7.10089 11.8365C6.4646 11.2036 6.10714 10.3451 6.10714 9.45C6.10714 8.55489 6.4646 7.69645 7.10089 7.06351C7.73717 6.43058 8.60016 6.075 9.5 6.075C10.3998 6.075 11.2628 6.43058 11.8991 7.06351C12.5354 7.69645 12.8929 8.55489 12.8929 9.45C12.8929 10.3451 12.5354 11.2036 11.8991 11.8365C11.2628 12.4694 10.3998 12.825 9.5 12.825Z" fill="#313677"/>
</svg>
