<?xml version="1.0" encoding="UTF-8" standalone="no"?>
<svg
   xmlns:dc="http://purl.org/dc/elements/1.1/"
   xmlns:cc="http://creativecommons.org/ns#"
   xmlns:rdf="http://www.w3.org/1999/02/22-rdf-syntax-ns#"
   xmlns:svg="http://www.w3.org/2000/svg"
   xmlns="http://www.w3.org/2000/svg"
   xmlns:sodipodi="http://sodipodi.sourceforge.net/DTD/sodipodi-0.dtd"
   xmlns:inkscape="http://www.inkscape.org/namespaces/inkscape"
   width="166.624mm"
   height="166.624mm"
   viewBox="0 0 1968 1968"
   version="1.1"
   id="svg20"
   sodipodi:docname="logo_utn.svg"
   inkscape:version="1.0.1 (3bc2e813f5, 2020-09-07)">
  <metadata
     id="metadata26">
    <rdf:RDF>
      <cc:Work
         rdf:about="">
        <dc:format>image/svg+xml</dc:format>
        <dc:type
           rdf:resource="http://purl.org/dc/dcmitype/StillImage" />
      </cc:Work>
    </rdf:RDF>
  </metadata>
  <defs
     id="defs24" />
  <sodipodi:namedview
     pagecolor="#ffffff"
     bordercolor="#666666"
     borderopacity="1"
     objecttolerance="10"
     gridtolerance="10"
     guidetolerance="10"
     inkscape:pageopacity="0"
     inkscape:pageshadow="2"
     inkscape:window-width="1920"
     inkscape:window-height="1017"
     id="namedview22"
     showgrid="false"
     inkscape:zoom="1.3497206"
     inkscape:cx="129.01152"
     inkscape:cy="314.87999"
     inkscape:window-x="-8"
     inkscape:window-y="-8"
     inkscape:window-maximized="1"
     inkscape:current-layer="svg20" />
  <path
     id="Selección"
     fill="none"
     stroke="black"
     stroke-width="1"
     d="M 281.00,226.00            C 281.00,226.00 281.00,352.00 281.00,352.00              281.00,352.00 322.00,348.17 322.00,348.17              322.00,348.17 377.00,343.91 377.00,343.91              377.00,343.91 424.00,340.09 424.00,340.09              424.00,340.09 463.00,337.91 463.00,337.91              463.00,337.91 489.00,336.00 489.00,336.00              489.00,336.00 507.00,334.96 507.00,334.96              507.00,334.96 515.00,334.96 515.00,334.96              515.00,334.96 525.00,334.00 525.00,334.00              525.00,334.00 546.00,333.00 546.00,333.00              546.00,333.00 567.00,332.00 567.00,332.00              567.00,332.00 599.00,331.00 599.00,331.00              599.00,331.00 610.00,330.04 610.00,330.04              610.00,330.04 627.00,330.04 627.00,330.04              627.00,330.04 643.00,329.00 643.00,329.00              643.00,329.00 662.00,329.00 662.00,329.00              662.00,329.00 678.00,328.00 678.00,328.00              678.00,328.00 706.00,328.00 706.00,328.00              706.00,328.00 722.00,327.00 722.00,327.00              722.00,327.00 762.00,327.00 762.00,327.00              762.00,327.00 762.00,1231.00 762.00,1231.00              762.00,1231.00 879.00,1231.00 879.00,1231.00              879.00,1231.00 879.00,327.00 879.00,327.00              879.00,327.00 919.00,327.00 919.00,327.00              919.00,327.00 936.00,328.00 936.00,328.00              936.00,328.00 963.00,328.00 963.00,328.00              963.00,328.00 979.00,329.00 979.00,329.00              979.00,329.00 998.00,329.00 998.00,329.00              998.00,329.00 1009.00,329.96 1009.00,329.96              1009.00,329.96 1026.00,329.96 1026.00,329.96              1026.00,329.96 1043.00,331.00 1043.00,331.00              1043.00,331.00 1075.00,332.00 1075.00,332.00              1075.00,332.00 1091.00,333.00 1091.00,333.00              1091.00,333.00 1134.00,335.00 1134.00,335.00              1134.00,335.00 1144.00,335.98 1144.00,335.98              1144.00,335.98 1154.00,335.98 1154.00,335.98              1154.00,335.98 1162.00,336.91 1162.00,336.91              1162.00,336.91 1202.00,339.09 1202.00,339.09              1202.00,339.09 1288.00,345.83 1288.00,345.83              1288.00,345.83 1319.00,348.17 1319.00,348.17              1319.00,348.17 1360.00,352.00 1360.00,352.00              1360.00,352.00 1360.00,226.00 1360.00,226.00              1360.00,226.00 281.00,226.00 281.00,226.00 Z            M 1106.00,548.00            C 1102.67,541.67 1103.92,530.28 1104.00,523.00              1104.00,523.00 1105.00,508.00 1105.00,508.00              1105.00,508.00 1106.00,460.00 1106.00,460.00              1106.00,460.00 1107.00,438.00 1107.00,438.00              1107.00,438.00 994.00,438.00 994.00,438.00              994.00,438.00 994.00,1232.00 994.00,1232.00              994.00,1232.00 1111.00,1232.00 1111.00,1232.00              1111.00,1232.00 1111.00,822.00 1111.00,822.00              1111.00,822.00 1111.00,743.00 1111.00,743.00              1111.00,743.00 1111.91,731.00 1111.91,731.00              1115.06,684.97 1125.56,639.33 1154.23,602.00              1193.77,550.52 1252.97,531.84 1315.00,525.83              1315.00,525.83 1340.00,524.00 1340.00,524.00              1340.00,524.00 1373.00,524.00 1373.00,524.00              1373.00,524.00 1401.00,525.91 1401.00,525.91              1442.91,528.97 1494.98,538.47 1518.94,577.00              1534.92,602.72 1540.05,634.33 1542.09,664.00              1542.09,664.00 1543.00,676.00 1543.00,676.00              1543.00,676.00 1543.00,700.00 1543.00,700.00              1543.00,700.00 1543.00,785.00 1543.00,785.00              1543.00,785.00 1543.00,1232.00 1543.00,1232.00              1543.00,1232.00 1660.00,1232.00 1660.00,1232.00              1660.00,1232.00 1660.00,1174.00 1660.00,1174.00              1618.11,1173.62 1588.76,1132.10 1605.01,1093.00              1607.94,1085.95 1611.73,1080.50 1617.04,1075.00              1622.24,1069.62 1628.12,1065.08 1635.00,1062.04              1644.49,1057.84 1649.78,1057.00 1660.00,1057.00              1660.00,1057.00 1660.00,942.00 1660.00,942.00              1619.45,941.88 1589.51,901.48 1604.06,863.00              1606.92,855.46 1611.45,848.78 1617.04,843.00              1622.24,837.62 1628.12,833.08 1635.00,830.04              1644.49,825.84 1649.78,825.00 1660.00,825.00              1660.00,825.00 1660.00,710.00 1660.00,710.00              1618.48,709.62 1587.69,666.80 1605.31,628.00              1611.13,615.19 1622.95,602.96 1636.00,597.46              1636.00,597.46 1650.00,593.00 1650.00,593.00              1642.31,552.12 1624.89,505.53 1592.00,478.46              1557.50,450.07 1504.69,437.07 1461.00,431.85              1461.00,431.85 1416.00,428.00 1416.00,428.00              1416.00,428.00 1401.00,427.00 1401.00,427.00              1401.00,427.00 1344.00,427.00 1344.00,427.00              1344.00,427.00 1332.00,428.00 1332.00,428.00              1332.00,428.00 1323.00,428.00 1323.00,428.00              1323.00,428.00 1297.00,430.85 1297.00,430.85              1233.82,438.40 1169.97,458.82 1128.61,510.00              1119.70,521.03 1111.61,534.97 1106.00,548.00 Z            M 0.00,438.00            C 0.00,438.00 0.00,883.00 0.00,883.00              0.00,883.00 0.00,990.00 0.00,990.00              0.00,990.00 3.73,1030.00 3.73,1030.00              8.81,1065.24 18.68,1102.30 37.20,1133.00              48.31,1151.41 59.20,1165.20 75.00,1179.91              111.12,1213.55 161.85,1231.33 210.00,1238.27              210.00,1238.27 246.00,1242.00 246.00,1242.00              246.00,1242.00 265.00,1243.00 265.00,1243.00              265.00,1243.00 292.00,1243.00 292.00,1243.00              292.00,1243.00 313.00,1242.00 313.00,1242.00              313.00,1242.00 323.00,1241.09 323.00,1241.09              346.59,1239.47 370.02,1236.12 393.00,1230.37              440.96,1218.38 485.04,1196.26 516.40,1157.00              524.04,1147.43 531.14,1137.29 536.00,1126.00              538.94,1131.60 537.48,1132.25 537.09,1138.00              537.09,1138.00 535.28,1161.00 535.28,1161.00              535.28,1161.00 532.83,1195.00 532.83,1195.00              532.83,1195.00 530.91,1219.00 530.91,1219.00              530.91,1219.00 530.00,1231.00 530.00,1231.00              530.00,1231.00 647.00,1231.00 647.00,1231.00              647.00,1231.00 647.00,438.00 647.00,438.00              647.00,438.00 530.00,438.00 530.00,438.00              530.00,438.00 530.00,909.00 530.00,909.00              530.00,909.00 529.00,926.00 529.00,926.00              529.00,926.00 526.16,963.00 526.16,963.00              521.88,1003.08 511.20,1050.87 485.72,1083.00              452.30,1125.15 395.93,1138.08 345.00,1143.17              345.00,1143.17 315.00,1145.00 315.00,1145.00              315.00,1145.00 300.00,1146.00 300.00,1146.00              300.00,1146.00 286.00,1146.00 286.00,1146.00              286.00,1146.00 266.00,1145.00 266.00,1145.00              266.00,1145.00 236.00,1142.28 236.00,1142.28              202.77,1137.95 165.75,1128.41 144.92,1100.00              131.63,1081.86 125.26,1056.88 121.59,1035.00              114.63,993.58 117.00,939.95 117.00,897.00              117.00,897.00 117.00,438.00 117.00,438.00              117.00,438.00 0.00,438.00 0.00,438.00 Z            M 1653.00,602.44            C 1633.35,606.07 1619.57,615.58 1612.70,635.00              1602.20,664.67 1623.47,699.61 1656.00,700.00              1666.10,700.12 1672.80,699.60 1682.00,694.68              1721.38,673.60 1714.55,614.56 1671.00,603.66              1664.48,602.03 1659.68,601.58 1653.00,602.44 Z            M 1776.00,705.23            C 1761.65,708.56 1750.32,715.18 1742.47,728.00              1723.02,759.75 1745.43,802.13 1783.00,802.99              1813.77,803.69 1837.30,777.40 1833.00,747.00              1831.51,736.46 1827.31,726.89 1819.71,719.29              1815.98,715.55 1809.85,711.17 1805.00,709.04              1798.27,706.09 1792.29,705.01 1785.00,705.23              1781.64,705.00 1779.36,705.00 1776.00,705.23 Z            M 1906.00,822.43            C 1887.22,825.50 1872.66,833.58 1864.87,852.00              1852.12,882.20 1872.91,919.60 1907.00,920.00              1918.94,920.14 1927.77,918.71 1938.00,911.90              1972.39,889.01 1962.96,836.39 1924.00,824.35              1918.53,822.66 1911.68,821.74 1906.00,822.43 Z            M 1654.00,834.43            C 1635.19,837.52 1620.83,846.74 1613.45,865.00              1601.33,895.01 1622.50,931.60 1656.00,932.00              1666.56,932.12 1673.51,931.48 1683.00,926.13              1720.82,904.81 1714.47,849.22 1673.00,836.35              1666.72,834.40 1660.53,833.62 1654.00,834.43 Z            M 1776.00,942.46            C 1751.81,947.69 1734.78,966.68 1735.74,992.00              1736.66,1015.96 1752.11,1034.72 1776.00,1038.92              1781.22,1039.83 1784.66,1040.40 1790.00,1039.56              1797.88,1038.33 1805.33,1035.93 1812.00,1031.48              1837.63,1014.39 1840.96,976.64 1818.83,955.29              1807.25,944.11 1791.66,940.30 1776.00,942.46 Z            M 1654.00,1066.43            C 1635.19,1069.52 1620.83,1078.74 1613.45,1097.00              1601.32,1127.05 1622.46,1163.60 1656.00,1164.00              1667.04,1164.13 1674.11,1163.30 1684.00,1157.66              1720.02,1137.14 1715.24,1080.58 1672.00,1068.04              1666.01,1066.30 1660.18,1065.66 1654.00,1066.43 Z            M 274.00,1307.00            C 274.00,1307.00 274.00,1398.00 274.00,1398.00              274.16,1411.53 277.03,1427.57 286.18,1438.00              301.22,1455.15 325.43,1458.47 347.00,1456.16              361.30,1454.64 374.20,1451.14 384.91,1440.83              394.75,1431.35 398.98,1416.32 399.00,1403.00              399.00,1403.00 399.00,1307.00 399.00,1307.00              399.00,1307.00 366.00,1307.00 366.00,1307.00              366.00,1307.00 366.00,1399.00 366.00,1399.00              365.99,1406.87 364.64,1415.94 358.79,1421.79              350.90,1429.68 332.89,1430.80 323.00,1426.47              318.04,1424.30 313.18,1419.79 310.67,1415.00              306.20,1406.47 307.00,1388.81 307.00,1379.00              307.00,1379.00 307.00,1307.00 307.00,1307.00              307.00,1307.00 274.00,1307.00 274.00,1307.00 Z            M 544.00,1307.00            C 544.00,1307.00 544.00,1332.00 544.00,1332.00              544.00,1332.00 574.00,1332.00 574.00,1332.00              574.00,1332.00 574.00,1307.00 574.00,1307.00              574.00,1307.00 544.00,1307.00 544.00,1307.00 Z            M 1008.00,1307.00            C 1008.00,1307.00 1008.00,1332.00 1008.00,1332.00              1008.00,1332.00 1038.00,1332.00 1038.00,1332.00              1038.00,1332.00 1038.00,1307.00 1038.00,1307.00              1038.00,1307.00 1008.00,1307.00 1008.00,1307.00 Z            M 1134.00,1307.00            C 1134.00,1307.00 1134.00,1358.00 1134.00,1358.00              1130.06,1354.10 1127.04,1350.92 1122.00,1348.38              1101.85,1338.21 1076.10,1345.89 1064.46,1365.00              1051.56,1386.20 1052.98,1421.53 1068.67,1440.99              1079.37,1454.26 1098.88,1458.56 1115.00,1454.76              1122.80,1452.93 1130.40,1449.55 1134.00,1442.00              1134.00,1442.00 1135.00,1453.00 1135.00,1453.00              1135.00,1453.00 1164.00,1453.00 1164.00,1453.00              1164.00,1453.00 1164.00,1307.00 1164.00,1307.00              1164.00,1307.00 1134.00,1307.00 1134.00,1307.00 Z            M 1375.00,1307.00            C 1375.00,1307.00 1375.00,1358.00 1375.00,1358.00              1357.16,1337.28 1323.55,1340.19 1307.78,1362.00              1292.70,1382.86 1293.47,1421.35 1310.30,1441.00              1321.53,1454.12 1338.42,1458.38 1355.00,1455.00              1363.80,1453.20 1371.97,1449.51 1376.00,1441.00              1376.00,1441.00 1377.00,1453.00 1377.00,1453.00              1377.00,1453.00 1405.00,1453.00 1405.00,1453.00              1405.00,1453.00 1405.00,1307.00 1405.00,1307.00              1405.00,1307.00 1375.00,1307.00 1375.00,1307.00 Z            M 452.00,1361.00            C 452.00,1361.00 451.00,1347.00 451.00,1347.00              451.00,1347.00 423.00,1347.00 423.00,1347.00              423.00,1347.00 423.00,1453.00 423.00,1453.00              423.00,1453.00 453.00,1453.00 453.00,1453.00              453.00,1453.00 453.00,1396.00 453.00,1396.00              453.06,1382.56 457.40,1369.16 473.00,1368.10              484.61,1367.30 490.79,1375.17 491.92,1386.00              494.05,1406.34 493.00,1432.06 493.00,1453.00              493.00,1453.00 523.00,1453.00 523.00,1453.00              523.00,1453.00 523.00,1390.00 523.00,1390.00              522.90,1381.72 521.49,1367.15 517.47,1360.00              514.97,1355.54 511.41,1351.80 507.00,1349.20              491.18,1339.88 460.36,1342.62 452.00,1361.00 Z            M 801.00,1420.00            C 801.00,1420.00 783.00,1420.00 783.00,1420.00              769.34,1420.03 773.64,1426.42 762.00,1431.47              758.49,1432.99 755.73,1433.00 752.00,1433.00              742.78,1433.00 736.06,1430.17 730.99,1422.00              728.38,1417.79 727.87,1412.78 727.00,1408.00              727.00,1408.00 803.00,1408.00 803.00,1408.00              803.00,1408.00 803.00,1396.00 803.00,1396.00              802.84,1382.33 796.23,1365.47 785.96,1356.30              764.29,1336.95 727.61,1341.06 709.32,1363.00              699.99,1374.20 696.84,1387.71 697.00,1402.00              697.22,1420.98 705.71,1440.40 723.00,1449.89              738.17,1457.82 763.78,1458.34 779.00,1449.89              787.00,1445.77 791.65,1440.84 796.13,1433.00              798.76,1428.38 800.17,1425.27 801.00,1420.00 Z            M 849.00,1364.00            C 849.00,1364.00 848.00,1347.00 848.00,1347.00              848.00,1347.00 819.00,1347.00 819.00,1347.00              819.00,1347.00 819.00,1453.00 819.00,1453.00              819.00,1453.00 849.00,1453.00 849.00,1453.00              849.00,1453.00 849.80,1397.00 849.80,1397.00              851.75,1386.85 855.94,1378.66 866.00,1374.48              875.62,1370.48 878.74,1372.80 888.00,1373.00              888.00,1373.00 888.00,1345.00 888.00,1345.00              873.25,1342.36 854.14,1348.50 849.00,1364.00 Z            M 922.00,1418.00            C 922.00,1418.00 893.00,1418.00 893.00,1418.00              893.43,1423.30 894.45,1430.24 896.83,1435.00              904.33,1450.00 922.22,1455.81 938.00,1456.00              958.15,1456.23 982.09,1454.47 989.90,1432.00              990.99,1428.85 991.83,1424.34 991.96,1421.00              992.96,1395.48 969.61,1391.20 950.00,1387.00              942.96,1385.49 928.93,1383.02 926.66,1375.00              924.21,1366.40 938.26,1364.28 944.00,1364.84              948.52,1365.29 953.53,1366.83 956.72,1370.21              961.62,1375.41 957.77,1378.82 967.00,1379.00              967.00,1379.00 989.00,1379.00 989.00,1379.00              987.79,1352.62 966.26,1344.10 943.00,1344.00              925.69,1343.93 904.16,1347.42 897.55,1366.00              895.92,1370.58 895.95,1374.24 896.00,1379.00              896.28,1403.42 922.59,1405.50 941.00,1410.13              947.24,1411.69 958.69,1414.27 961.10,1421.02              964.19,1429.64 951.78,1435.25 945.00,1435.81              933.45,1436.77 923.11,1429.93 922.00,1418.00 Z            M 1183.00,1380.00            C 1183.00,1380.00 1214.00,1380.00 1214.00,1380.00              1215.20,1368.75 1223.43,1364.24 1234.00,1364.75              1241.22,1365.10 1248.62,1367.80 1249.76,1376.00              1251.10,1385.59 1241.18,1387.82 1234.00,1389.20              1218.00,1392.26 1195.36,1390.75 1185.10,1406.00              1174.91,1421.17 1179.61,1444.92 1197.00,1452.65              1208.67,1457.84 1229.47,1457.04 1241.00,1451.68              1245.76,1449.47 1248.17,1447.48 1252.00,1444.00              1252.00,1444.00 1253.00,1453.00 1253.00,1453.00              1253.00,1453.00 1284.00,1454.00 1284.00,1454.00              1284.00,1454.00 1281.47,1445.00 1281.47,1445.00              1278.87,1431.49 1280.03,1391.18 1280.00,1375.00              1279.99,1370.34 1280.05,1367.46 1278.24,1363.00              1271.50,1346.42 1247.59,1343.82 1232.00,1344.00              1215.59,1344.19 1196.29,1348.67 1187.53,1364.00              1184.22,1369.80 1184.49,1373.95 1183.00,1380.00 Z            M 544.00,1347.00            C 544.00,1347.00 544.00,1453.00 544.00,1453.00              544.00,1453.00 574.00,1453.00 574.00,1453.00              574.00,1453.00 574.00,1347.00 574.00,1347.00              574.00,1347.00 544.00,1347.00 544.00,1347.00 Z            M 586.00,1347.00            C 586.00,1347.00 595.66,1376.00 595.66,1376.00              595.66,1376.00 613.67,1429.00 613.67,1429.00              613.67,1429.00 619.31,1445.00 619.31,1445.00              619.31,1445.00 622.70,1452.01 622.70,1452.01              622.70,1452.01 630.00,1453.00 630.00,1453.00              630.00,1453.00 656.00,1453.00 656.00,1453.00              656.00,1453.00 664.67,1427.00 664.67,1427.00              664.67,1427.00 679.05,1384.00 679.05,1384.00              679.05,1384.00 691.00,1347.00 691.00,1347.00              691.00,1347.00 661.00,1347.00 661.00,1347.00              661.00,1347.00 640.00,1418.00 640.00,1418.00              640.00,1418.00 630.98,1390.00 630.98,1390.00              630.98,1390.00 618.00,1347.00 618.00,1347.00              618.00,1347.00 586.00,1347.00 586.00,1347.00 Z            M 1008.00,1347.00            C 1008.00,1347.00 1008.00,1453.00 1008.00,1453.00              1008.00,1453.00 1038.00,1453.00 1038.00,1453.00              1038.00,1453.00 1038.00,1347.00 1038.00,1347.00              1038.00,1347.00 1008.00,1347.00 1008.00,1347.00 Z            M 773.00,1388.00            C 773.00,1388.00 727.00,1388.00 727.00,1388.00              732.13,1362.89 756.05,1363.94 764.82,1371.53              769.49,1375.58 771.67,1382.15 773.00,1388.00 Z            M 1106.00,1367.18            C 1106.00,1367.18 1112.00,1367.18 1112.00,1367.18              1133.16,1367.97 1136.96,1392.40 1134.25,1409.00              1132.59,1419.14 1128.28,1430.16 1117.00,1432.61              1083.36,1439.93 1078.56,1389.09 1094.33,1373.33              1097.58,1370.07 1101.61,1368.38 1106.00,1367.18 Z            M 1348.00,1367.30            C 1366.92,1365.43 1375.79,1378.45 1376.00,1396.00              1376.15,1409.01 1375.18,1427.51 1360.00,1432.20              1357.24,1433.05 1353.88,1433.06 1351.00,1432.99              1339.16,1432.70 1332.27,1424.80 1329.04,1414.00              1323.96,1396.98 1327.40,1371.33 1348.00,1367.30 Z            M 1250.00,1403.00            C 1250.00,1409.73 1250.70,1417.77 1248.05,1424.00              1242.07,1438.02 1222.56,1438.16 1215.19,1433.00              1207.91,1427.90 1208.91,1416.83 1216.04,1411.97              1222.76,1407.39 1231.35,1407.72 1239.00,1406.19              1239.00,1406.19 1250.00,1403.00 1250.00,1403.00 Z            M 168.00,1580.00            C 168.00,1580.00 189.00,1579.40 189.00,1579.40              189.00,1579.40 199.00,1571.42 199.00,1571.42              199.00,1571.42 221.00,1550.00 221.00,1550.00              221.00,1550.00 193.00,1550.00 193.00,1550.00              185.35,1550.13 184.68,1553.98 180.67,1560.00              176.70,1565.95 171.02,1573.81 168.00,1580.00 Z            M 3.00,1551.00            C 3.00,1551.00 3.00,1579.00 3.00,1579.00              3.00,1579.00 47.00,1579.00 47.00,1579.00              47.00,1579.00 47.00,1698.00 47.00,1698.00              47.00,1698.00 80.00,1698.00 80.00,1698.00              80.00,1698.00 80.00,1579.00 80.00,1579.00              80.00,1579.00 124.00,1579.00 124.00,1579.00              124.00,1579.00 124.00,1551.00 124.00,1551.00              124.00,1551.00 3.00,1551.00 3.00,1551.00 Z            M 492.00,1551.00            C 492.00,1551.00 492.00,1576.00 492.00,1576.00              492.00,1576.00 522.00,1576.00 522.00,1576.00              522.00,1576.00 522.00,1551.00 522.00,1551.00              522.00,1551.00 492.00,1551.00 492.00,1551.00 Z            M 837.00,1551.00            C 837.00,1551.00 837.00,1698.00 837.00,1698.00              837.00,1698.00 868.00,1698.00 868.00,1698.00              868.00,1698.00 868.00,1602.00 868.00,1602.00              868.00,1602.00 913.42,1675.00 913.42,1675.00              913.42,1675.00 922.80,1690.00 922.80,1690.00              922.80,1690.00 928.21,1696.98 928.21,1696.98              928.21,1696.98 936.00,1698.00 936.00,1698.00              936.00,1698.00 961.00,1698.00 961.00,1698.00              961.00,1698.00 961.00,1551.00 961.00,1551.00              961.00,1551.00 930.00,1551.00 930.00,1551.00              930.00,1551.00 930.00,1647.00 930.00,1647.00              930.00,1647.00 915.32,1624.00 915.32,1624.00              915.32,1624.00 884.19,1574.00 884.19,1574.00              884.19,1574.00 874.81,1559.00 874.81,1559.00              874.81,1559.00 869.48,1551.99 869.48,1551.99              869.48,1551.99 862.00,1551.00 862.00,1551.00              862.00,1551.00 837.00,1551.00 837.00,1551.00 Z            M 1220.00,1551.00            C 1220.00,1551.00 1220.00,1576.00 1220.00,1576.00              1220.00,1576.00 1250.00,1576.00 1250.00,1576.00              1250.00,1576.00 1250.00,1551.00 1250.00,1551.00              1250.00,1551.00 1220.00,1551.00 1220.00,1551.00 Z            M 1634.00,1551.00            C 1634.00,1551.00 1634.00,1698.00 1634.00,1698.00              1634.00,1698.00 1664.00,1698.00 1664.00,1698.00              1664.00,1698.00 1664.00,1551.00 1664.00,1551.00              1664.00,1551.00 1634.00,1551.00 1634.00,1551.00 Z            M 235.00,1664.00            C 235.00,1664.00 217.00,1664.00 217.00,1664.00              203.33,1664.02 209.55,1669.88 197.00,1675.47              186.49,1680.15 172.77,1677.92 166.11,1667.99              162.52,1662.64 162.50,1657.94 161.00,1652.00              161.00,1652.00 237.00,1652.00 237.00,1652.00              237.00,1652.00 237.00,1640.00 237.00,1640.00              236.80,1623.60 229.00,1607.54 216.00,1597.53              208.76,1591.95 199.07,1589.11 190.00,1589.00              172.64,1588.80 159.07,1590.94 146.29,1604.17              136.25,1614.56 131.64,1628.76 131.04,1643.00              129.77,1673.20 149.31,1699.85 181.00,1700.00              181.00,1700.00 192.00,1700.00 192.00,1700.00              208.80,1699.80 223.43,1690.87 231.22,1676.00              233.62,1671.42 234.53,1669.16 235.00,1664.00 Z            M 355.00,1657.00            C 355.00,1657.00 332.00,1657.00 332.00,1657.00              330.35,1657.03 328.10,1656.93 326.72,1657.99              325.35,1659.06 323.35,1664.87 322.12,1667.00              318.44,1673.36 312.35,1677.21 305.00,1677.81              295.83,1678.57 286.93,1671.01 283.47,1663.00              277.73,1649.74 278.86,1629.00 289.32,1618.30              297.94,1609.48 312.58,1609.01 320.44,1619.04              322.97,1622.26 324.10,1626.09 325.00,1630.00              325.00,1630.00 354.00,1630.00 354.00,1630.00              353.93,1605.16 333.90,1589.28 310.00,1589.00              299.04,1588.88 291.40,1588.41 281.00,1592.87              256.88,1603.22 249.72,1624.56 250.00,1649.00              250.18,1663.81 256.55,1679.10 268.00,1688.68              287.13,1704.68 325.44,1704.78 342.82,1685.96              350.34,1677.82 353.55,1667.75 355.00,1657.00 Z            M 399.00,1604.00            C 399.00,1604.00 399.00,1591.00 399.00,1591.00              399.00,1591.00 370.00,1591.00 370.00,1591.00              370.00,1591.00 370.00,1698.00 370.00,1698.00              370.00,1698.00 400.00,1698.00 400.00,1698.00              400.00,1698.00 400.00,1655.00 400.00,1655.00              400.00,1645.78 399.42,1635.90 402.22,1627.00              406.57,1613.16 422.49,1608.74 431.96,1615.65              438.57,1620.47 439.91,1630.35 440.00,1638.00              440.00,1638.00 440.00,1698.00 440.00,1698.00              440.00,1698.00 470.00,1698.00 470.00,1698.00              470.00,1698.00 470.00,1644.00 470.00,1644.00              470.00,1632.13 470.62,1618.19 466.07,1607.00              461.04,1594.61 448.65,1589.15 436.00,1589.00              426.19,1588.89 420.05,1588.59 411.00,1593.40              405.43,1596.36 403.02,1599.41 399.00,1604.00 Z            M 645.00,1657.00            C 645.00,1657.00 616.00,1657.00 616.00,1657.00              613.18,1674.97 595.59,1683.10 583.00,1674.35              574.24,1668.26 570.92,1657.19 570.18,1647.00              569.37,1635.74 574.34,1621.11 584.00,1614.70              597.21,1605.94 612.70,1615.33 615.00,1630.00              615.00,1630.00 645.00,1630.00 645.00,1630.00              643.59,1619.38 642.24,1612.35 634.82,1604.00              618.70,1585.88 582.64,1584.03 563.00,1597.10              546.67,1607.97 539.24,1628.96 540.04,1648.00              540.76,1665.16 547.83,1682.84 563.00,1692.07              570.85,1696.85 579.78,1699.89 589.00,1700.00              597.57,1700.10 604.67,1700.50 613.00,1697.96              631.55,1692.30 644.09,1676.44 645.00,1657.00 Z            M 659.00,1625.00            C 659.00,1625.00 682.00,1625.00 682.00,1625.00              683.51,1624.99 686.24,1625.09 687.57,1624.43              690.24,1623.11 690.01,1619.64 692.65,1616.04              696.78,1610.41 703.35,1608.75 710.00,1609.04              724.57,1609.68 730.85,1623.47 720.96,1630.01              715.97,1633.30 709.72,1633.63 704.00,1634.42              686.67,1636.82 664.47,1637.54 657.55,1657.00              655.92,1661.58 655.95,1665.24 656.00,1670.00              656.42,1706.17 705.90,1708.18 727.00,1689.00              727.00,1689.00 729.00,1698.00 729.00,1698.00              729.00,1698.00 760.00,1698.00 760.00,1698.00              755.03,1685.06 756.00,1676.40 756.00,1663.00              756.00,1663.00 756.00,1621.00 756.00,1621.00              755.99,1615.91 755.72,1610.67 753.43,1606.00              747.50,1593.85 730.52,1589.15 718.00,1589.00              698.14,1588.77 671.19,1589.23 661.95,1611.00              660.32,1614.85 659.34,1620.81 659.00,1625.00 Z            M 984.00,1625.00            C 984.00,1625.00 1014.00,1625.00 1014.00,1625.00              1015.37,1612.08 1026.12,1607.17 1038.00,1609.47              1044.98,1610.82 1052.25,1617.24 1049.40,1625.00              1046.07,1634.04 1030.14,1634.28 1022.00,1635.16              1000.89,1637.46 982.21,1642.35 980.32,1667.00              980.11,1669.82 980.70,1673.17 981.13,1676.00              985.24,1702.98 1019.66,1704.83 1040.00,1696.55              1045.11,1694.47 1047.82,1692.52 1052.00,1689.00              1052.00,1689.00 1054.56,1696.98 1054.56,1696.98              1054.56,1696.98 1061.00,1698.00 1061.00,1698.00              1061.00,1698.00 1084.00,1698.00 1084.00,1698.00              1084.00,1698.00 1081.30,1687.00 1081.30,1687.00              1078.75,1669.30 1080.03,1637.14 1080.00,1618.00              1080.00,1614.92 1080.10,1611.98 1079.20,1609.00              1074.49,1593.38 1054.22,1589.02 1040.00,1589.00              1040.00,1589.00 1028.00,1589.00 1028.00,1589.00              1011.53,1589.08 991.43,1595.90 985.75,1613.00              984.21,1617.63 984.04,1620.23 984.00,1625.00 Z            M 1204.00,1657.00            C 1204.00,1657.00 1181.00,1657.00 1181.00,1657.00              1179.29,1657.04 1177.00,1656.96 1175.56,1658.02              1173.44,1659.58 1173.48,1663.02 1171.01,1667.00              1167.23,1673.08 1161.19,1677.21 1154.00,1677.81              1143.22,1678.72 1135.77,1671.30 1131.88,1662.00              1125.83,1647.60 1128.38,1622.80 1143.00,1614.23              1150.88,1609.60 1162.29,1611.27 1168.32,1618.18              1175.37,1626.27 1169.61,1629.92 1181.00,1630.00              1181.00,1630.00 1203.00,1630.00 1203.00,1630.00              1202.45,1604.97 1182.03,1589.28 1158.00,1589.00              1146.09,1588.86 1137.03,1588.78 1126.00,1594.37              1108.08,1603.46 1099.03,1622.50 1099.00,1642.00              1099.00,1642.00 1099.00,1651.00 1099.00,1651.00              1099.31,1677.30 1120.42,1699.69 1147.00,1700.00              1160.01,1700.15 1170.33,1700.37 1182.00,1693.37              1197.58,1684.02 1199.93,1673.13 1204.00,1657.00 Z            M 1312.00,1589.44            C 1300.40,1591.58 1289.38,1595.81 1281.46,1605.04              1266.07,1622.98 1263.42,1655.68 1275.47,1676.00              1280.92,1685.18 1287.43,1690.72 1297.00,1695.22              1303.46,1698.26 1309.85,1699.91 1317.00,1700.00              1332.62,1700.18 1344.75,1700.10 1358.00,1690.24              1383.18,1671.51 1385.12,1624.67 1362.96,1603.09              1349.60,1590.08 1329.86,1587.15 1312.00,1589.44 Z            M 1425.00,1605.00            C 1425.00,1605.00 1424.00,1591.00 1424.00,1591.00              1424.00,1591.00 1396.00,1591.00 1396.00,1591.00              1396.00,1591.00 1396.00,1698.00 1396.00,1698.00              1396.00,1698.00 1426.00,1698.00 1426.00,1698.00              1426.00,1698.00 1426.00,1653.00 1426.00,1653.00              1426.00,1644.51 1425.24,1633.96 1428.10,1626.00              1432.55,1613.63 1448.25,1608.44 1457.90,1615.80              1465.16,1621.34 1465.99,1635.47 1466.00,1644.00              1466.00,1644.00 1466.00,1698.00 1466.00,1698.00              1466.00,1698.00 1496.00,1698.00 1496.00,1698.00              1496.00,1698.00 1496.00,1634.00 1496.00,1634.00              1495.89,1624.91 1494.29,1610.82 1489.65,1603.00              1483.92,1593.36 1472.80,1589.13 1462.00,1589.00              1447.25,1588.83 1432.84,1590.40 1425.00,1605.00 Z            M 1515.00,1625.00            C 1515.00,1625.00 1538.00,1625.00 1538.00,1625.00              1539.56,1624.99 1542.30,1625.07 1543.69,1624.40              1546.46,1623.07 1545.98,1619.70 1548.65,1616.04              1552.03,1611.42 1557.43,1609.28 1563.00,1609.04              1567.14,1608.86 1572.45,1609.34 1575.96,1611.72              1582.08,1615.90 1584.34,1624.29 1577.89,1629.35              1573.01,1633.19 1565.90,1633.61 1560.00,1634.42              1544.70,1636.54 1523.52,1637.45 1515.40,1653.00              1506.19,1670.64 1514.38,1693.53 1534.00,1698.84              1546.07,1702.11 1562.72,1701.30 1574.00,1695.62              1577.54,1693.85 1580.77,1691.28 1584.00,1689.00              1584.00,1689.00 1585.00,1698.00 1585.00,1698.00              1585.00,1698.00 1616.00,1698.00 1616.00,1698.00              1616.00,1698.00 1613.32,1689.00 1613.32,1689.00              1610.95,1676.19 1612.02,1635.58 1612.00,1620.00              1611.99,1615.67 1612.01,1612.16 1610.44,1608.00              1605.23,1594.18 1587.41,1589.16 1574.00,1589.00              1553.13,1588.76 1528.60,1588.84 1518.32,1611.00              1516.20,1615.57 1515.65,1620.06 1515.00,1625.00 Z            M 492.00,1592.00            C 492.00,1592.00 492.00,1698.00 492.00,1698.00              492.00,1698.00 522.00,1698.00 522.00,1698.00              522.00,1698.00 522.00,1592.00 522.00,1592.00              522.00,1592.00 492.00,1592.00 492.00,1592.00 Z            M 1220.00,1592.00            C 1220.00,1592.00 1220.00,1698.00 1220.00,1698.00              1220.00,1698.00 1250.00,1698.00 1250.00,1698.00              1250.00,1698.00 1250.00,1592.00 1250.00,1592.00              1250.00,1592.00 1220.00,1592.00 1220.00,1592.00 Z            M 207.00,1633.00            C 207.00,1633.00 161.00,1633.00 161.00,1633.00              162.83,1626.17 164.11,1620.58 170.09,1615.94              177.80,1609.96 192.26,1609.63 199.53,1616.53              204.02,1620.78 206.08,1627.04 207.00,1633.00 Z            M 1322.00,1611.38            C 1345.79,1611.57 1350.88,1635.81 1347.20,1655.00              1344.82,1667.38 1338.64,1676.97 1325.00,1677.91              1305.60,1679.24 1298.39,1662.66 1298.01,1646.00              1297.62,1628.63 1302.90,1613.89 1322.00,1611.38 Z            M 726.00,1647.00            C 726.00,1659.27 727.16,1673.67 713.00,1678.87              710.16,1679.91 707.96,1679.96 705.00,1680.00              700.62,1680.05 695.93,1680.23 692.03,1677.91              683.76,1673.04 684.24,1661.28 692.03,1656.14              698.69,1651.77 712.71,1652.28 726.00,1647.00 Z            M 1050.00,1648.00            C 1050.00,1653.29 1050.54,1662.27 1048.89,1667.00              1043.09,1683.69 1020.09,1681.96 1014.23,1676.58              1011.97,1674.52 1011.07,1671.98 1010.79,1669.00              1009.88,1659.26 1016.52,1654.97 1025.00,1652.90              1025.00,1652.90 1040.00,1650.54 1040.00,1650.54              1040.00,1650.54 1050.00,1648.00 1050.00,1648.00 Z            M 1582.00,1648.00            C 1582.00,1653.95 1582.59,1661.47 1580.61,1667.00              1574.59,1683.85 1552.09,1681.83 1546.21,1676.58              1539.08,1670.23 1539.81,1657.05 1557.00,1652.90              1557.00,1652.90 1571.00,1650.58 1571.00,1650.58              1571.00,1650.58 1582.00,1648.00 1582.00,1648.00 Z"
     style="fill:#002f6b;fill-opacity:1" />
  <path
     style="fill:none;stroke-width:0.740894"
     d="m 526.52827,222.91802 c -5.37197,-1.62061 -9.66592,-6.65562 -10.69235,-12.53763 -0.6644,-3.80736 1.27428,-9.56406 4.16215,-12.3591 9.97885,-9.65807 25.76638,-3.28926 25.76638,10.39435 0,9.98957 -9.7727,17.35733 -19.23618,14.50238 z"
     id="path93"
     transform="scale(3.1250003)" />
  <path
     style="fill:none;stroke-width:0.740894"
     d="m 526.52827,222.91802 c -5.37197,-1.62061 -9.66592,-6.65562 -10.69235,-12.53763 -0.6644,-3.80736 1.27428,-9.56406 4.16215,-12.3591 9.97885,-9.65807 25.76638,-3.28926 25.76638,10.39435 0,9.98957 -9.7727,17.35733 -19.23618,14.50238 z"
     id="path95"
     transform="scale(3.1250003)" />
  <path
     style="fill:#a8cbfe;stroke-width:0.740894"
     d="m 526.52827,222.91802 c -5.37197,-1.62061 -9.66592,-6.65562 -10.69235,-12.53763 -0.6644,-3.80736 1.27428,-9.56406 4.16215,-12.3591 9.97885,-9.65807 25.76638,-3.28926 25.76638,10.39435 0,9.98957 -9.7727,17.35733 -19.23618,14.50238 z"
     id="path113"
     transform="scale(3.1250003)" />
  <path
     style="fill:#a8cbfe;stroke-width:0.740894"
     d="m 565.79073,255.52504 c -5.96822,-2.38189 -9.60973,-7.89044 -9.63749,-14.57875 -0.0561,-13.51874 15.86137,-19.87998 25.53613,-10.20521 9.44208,9.44208 2.62363,25.66801 -10.73452,25.54504 -1.83372,-0.0169 -4.15757,-0.35936 -5.16412,-0.76108 z"
     id="path115"
     transform="scale(3.1250003)" />
  <path
     style="fill:#a8cbfe;stroke-width:0.740894"
     d="m 607.08384,293.43301 c -4.32922,-1.37996 -7.16064,-3.81598 -9.14168,-7.86507 -4.83702,-9.88652 0.97393,-20.39395 11.96355,-21.63264 8.5254,-0.96094 16.59406,6.61168 16.61206,15.59079 0.009,4.47787 -3.86784,10.50984 -8.21507,12.78188 -2.52961,1.32209 -8.66917,1.93777 -11.21886,1.12504 z"
     id="path117"
     transform="scale(3.1250003)" />
  <path
     style="fill:#a8cbfe;stroke-width:0.740894"
     d="m 564.65725,330.69152 c -6.01698,-3.16647 -8.9365,-8.55978 -8.36489,-15.45264 0.37657,-4.54098 1.68171,-6.76335 6.04668,-10.29622 2.34803,-1.90041 3.54079,-2.28714 7.7957,-2.52756 8.79004,-0.49668 14.35644,3.87487 15.91453,12.49842 1.06552,5.89731 -3.66713,14.06403 -9.40073,16.22203 -3.03825,1.14352 -9.42392,0.90707 -11.99129,-0.44403 z"
     id="path119"
     transform="scale(3.1250003)" />
  <path
     style="fill:#a8cbfe;stroke-width:0.740894"
     d="m 524.42705,370.69031 c -10.08945,-4.97242 -11.46872,-19.88001 -2.40448,-25.98839 7.86638,-5.30115 18.30355,-2.80258 22.23728,5.32342 2.44624,5.05326 1.94353,11.85642 -1.16484,15.76356 -4.42561,5.56288 -12.84197,7.77266 -18.66796,4.90141 z"
     id="path121"
     transform="scale(3.1250003)" />
  <path
     style="fill:#bccee8;stroke-width:0.740894;fill-opacity:1"
     d="m 525.0247,296.70544 c -10.87801,-4.91171 -12.32022,-19.61652 -2.59366,-26.44496 6.61272,-4.64239 16.40978,-2.80638 20.85312,3.90797 2.91633,4.40686 3.29677,11.62243 0.83626,15.86077 -3.71767,6.40386 -12.72472,9.55289 -19.09572,6.67622 z"
     id="path123"
     transform="scale(3.1250003)" />
  <path
     style="fill:#bccee8;fill-opacity:1;stroke-width:0.740894"
     d="m 524.53193,221.51187 c -3.62862,-1.91698 -6.98393,-6.12811 -7.95481,-9.98382 -1.56227,-6.20435 2.43011,-13.83816 8.58133,-16.4083 4.15109,-1.73444 9.85758,-1.29672 13.45378,1.03196 4.38414,2.83891 7.10357,8.42988 6.60814,13.58592 -0.94976,9.88434 -12.17406,16.27233 -20.68844,11.77424 z"
     id="path948"
     transform="scale(3.1250003)" />
  <path
     style="fill:#bccee8;fill-opacity:1;stroke-width:0.740894"
     d="m 564.25522,254.22823 c -4.76236,-2.90418 -7.73339,-8.21721 -7.74368,-13.84785 -0.006,-3.41269 3.29967,-9.33787 6.36868,-11.41459 3.91389,-2.64843 10.7195,-2.9338 14.67224,-0.61522 4.87566,2.85994 7.33662,6.58745 7.70421,11.66923 0.6581,9.09816 -5.28348,15.59143 -14.26165,15.58589 -3.06121,-0.002 -5.20135,-0.43928 -6.7398,-1.37746 z"
     id="path950"
     transform="scale(3.1250003)" />
  <path
     style="fill:#bccee8;fill-opacity:1;stroke-width:0.740894"
     d="m 605.03597,292.20859 c -3.60227,-1.98157 -4.92487,-3.4154 -6.76582,-7.33481 -2.03132,-4.32475 -2.20177,-7.49731 -0.60776,-11.31232 4.02434,-9.6316 16.30663,-12.18543 23.59407,-4.90586 2.64744,2.64459 4.85709,7.32357 4.87872,10.33078 0.0257,3.57163 -3.47926,9.80302 -6.72024,11.9478 -3.70365,2.45096 -11.05559,3.10256 -14.37897,1.27441 z"
     id="path952"
     transform="scale(3.1250003)" />
  <path
     style="fill:#bccee8;fill-opacity:1;stroke-width:0.740894"
     d="m 564.2868,329.79366 c -9.33175,-5.79572 -10.33445,-17.59818 -2.05336,-24.1695 2.39313,-1.89903 3.54847,-2.25546 8.04816,-2.48295 8.43944,-0.42666 12.94185,2.76223 15.03787,10.65079 1.41244,5.31583 -1.83697,12.74233 -6.96091,15.9091 -3.23733,2.00078 -10.91798,2.0513 -14.07176,0.0926 z"
     id="path954"
     transform="scale(3.1250003)" />
  <path
     style="fill:#bccee8;fill-opacity:1;stroke-width:0.740894"
     d="m 526.85354,370.98232 c -5.92316,-1.52017 -10.35441,-7.536 -10.35441,-14.05706 0,-4.25227 0.99876,-6.97564 3.56638,-9.72458 7.21838,-7.72816 19.55358,-5.86579 23.92817,3.61267 1.53485,3.32558 1.79569,8.11827 0.61229,11.2504 -2.38336,6.3081 -11.01923,10.64663 -17.75243,8.91857 z"
     id="path956"
     transform="scale(3.1250003)" />
</svg>
