<?xml version="1.0" encoding="UTF-8"?>
<!DOCTYPE svg PUBLIC "-//W3C//DTD SVG 1.1//EN" "http://www.w3.org/Graphics/SVG/1.1/DTD/svg11.dtd">
<svg xmlns="http://www.w3.org/2000/svg" version="1.1" width="4182px" height="704px" style="shape-rendering:geometricPrecision; text-rendering:geometricPrecision; image-rendering:optimizeQuality; fill-rule:evenodd; clip-rule:evenodd" xmlns:xlink="http://www.w3.org/1999/xlink">
<g><path style="opacity:0.997" fill="#1d2958" d="M 304.5,141.5 C 451.167,141.5 597.833,141.5 744.5,141.5C 744.5,279.167 744.5,416.833 744.5,554.5C 597.833,554.5 451.167,554.5 304.5,554.5C 304.5,416.833 304.5,279.167 304.5,141.5 Z"/></g>
<g><path style="opacity:0.875" fill="#1d2958" d="M 2747.5,142.5 C 2750.17,142.5 2752.83,142.5 2755.5,142.5C 2755.5,282.167 2755.5,421.833 2755.5,561.5C 2752.83,561.5 2750.17,561.5 2747.5,561.5C 2747.5,421.833 2747.5,282.167 2747.5,142.5 Z"/></g>
<g><path style="opacity:1" fill="#cfac66" d="M 633.5,462.5 C 633.5,467.5 633.5,472.5 633.5,477.5C 632.5,477.5 631.5,477.5 630.5,477.5C 625.823,477.165 621.156,476.665 616.5,476C 607.591,471.962 598.758,467.795 590,463.5C 589.333,462.167 589.333,460.833 590,459.5C 593.833,450.667 597.667,441.833 601.5,433C 600.942,429.486 600.276,425.986 599.5,422.5C 578.022,405.523 556.689,388.356 535.5,371C 520.616,365.559 505.949,359.559 491.5,353C 488.121,341.354 485.454,329.52 483.5,317.5C 480.101,316.984 476.768,316.15 473.5,315C 460.5,305.333 447.5,295.667 434.5,286C 431.97,284.578 429.303,284.245 426.5,285C 441.245,296.702 455.578,308.869 469.5,321.5C 461.863,333.635 454.03,345.635 446,357.5C 436.47,348.304 427.303,338.804 418.5,329C 403.833,323.333 389.167,317.667 374.5,312C 372.409,298.937 370.742,285.77 369.5,272.5C 369.865,268.006 370.865,263.673 372.5,259.5C 378.38,255.733 384.046,251.733 389.5,247.5C 384.167,240.167 378.833,232.833 373.5,225.5C 370.696,223.899 367.696,222.899 364.5,222.5C 364.5,220.167 364.5,217.833 364.5,215.5C 370.405,215.079 376.239,214.412 382,213.5C 383.662,206.519 385.162,199.519 386.5,192.5C 406.24,198.357 425.906,204.524 445.5,211C 463.497,211.759 481.497,212.425 499.5,213C 518.535,219.567 537.701,225.734 557,231.5C 567.971,228.731 578.804,225.564 589.5,222C 591.259,221.202 592.926,221.369 594.5,222.5C 597.005,227.496 598.172,232.83 598,238.5C 600,241.833 602,245.167 604,248.5C 628.716,279.547 653.049,310.881 677,342.5C 687.08,349.457 697.247,356.291 707.5,363C 704.971,365.029 702.304,366.862 699.5,368.5C 691.5,365.833 683.5,363.167 675.5,360.5C 673.087,376.805 670.753,393.139 668.5,409.5C 668.529,411.029 669.196,412.196 670.5,413C 677.339,417.252 684.006,421.752 690.5,426.5C 683.816,433.35 677.316,440.35 671,447.5C 672.056,457.172 673.556,466.838 675.5,476.5C 670.763,480.882 665.43,484.548 659.5,487.5C 659.167,488.667 658.833,489.833 658.5,491C 659.607,496.52 660.44,502.02 661,507.5C 655.834,500.505 651.167,493.172 647,485.5C 647.321,479.058 648.488,472.724 650.5,466.5C 648.625,463.249 646.625,460.082 644.5,457C 638.833,454 633.167,451 627.5,448C 623.833,447.333 620.167,447.333 616.5,448C 621.5,451.667 626.5,455.333 631.5,459C 632.823,459.816 633.489,460.983 633.5,462.5 Z"/></g>
<g><path style="opacity:0.953" fill="#1d2958" d="M 1700.5,234.5 C 1729.23,235.065 1744.23,249.565 1745.5,278C 1744.49,305.51 1730.16,320.01 1702.5,321.5C 1674.81,319.981 1660.48,305.481 1659.5,278C 1660.35,251.321 1674.01,236.821 1700.5,234.5 Z M 1697.5,252.5 C 1716.05,251.754 1725.71,260.587 1726.5,279C 1725.79,294.21 1717.79,302.377 1702.5,303.5C 1689.9,302.963 1682.07,296.63 1679,284.5C 1675.73,268.003 1681.9,257.336 1697.5,252.5 Z"/></g>
<g><path style="opacity:0.949" fill="#1d2958" d="M 1214.5,236.5 C 1229.38,234.527 1243.38,237.027 1256.5,244C 1261.63,248.267 1264.96,253.6 1266.5,260C 1261.66,262.45 1256.66,264.617 1251.5,266.5C 1247.58,258.766 1241.25,254.266 1232.5,253C 1224.36,251.65 1216.69,252.983 1209.5,257C 1205.86,261.783 1207.2,265.116 1213.5,267C 1223.79,268.633 1234.13,269.966 1244.5,271C 1267.43,275.703 1273.6,288.537 1263,309.5C 1256.45,315.859 1248.61,319.692 1239.5,321C 1230.17,321.667 1220.83,321.667 1211.5,321C 1197.54,319.028 1188.54,311.361 1184.5,298C 1189.96,295.368 1195.29,292.535 1200.5,289.5C 1209.44,301.871 1221.44,306.038 1236.5,302C 1239.64,301.399 1242.64,300.399 1245.5,299C 1248.69,294.423 1247.69,291.09 1242.5,289C 1229.51,287.286 1216.51,285.62 1203.5,284C 1186.26,278.311 1181.43,267.144 1189,250.5C 1196.06,243.055 1204.56,238.388 1214.5,236.5 Z"/></g>
<g><path style="opacity:0.96" fill="#1d2958" d="M 1529.5,237.5 C 1540.87,237.241 1552.2,237.741 1563.5,239C 1582.91,245.187 1588.41,257.687 1580,276.5C 1576.15,280.312 1571.99,283.479 1567.5,286C 1568.93,291.29 1570.93,296.29 1573.5,301C 1576.75,302.644 1580.08,302.811 1583.5,301.5C 1583.5,307.5 1583.5,313.5 1583.5,319.5C 1575.29,322.282 1567.29,321.782 1559.5,318C 1557.29,316.127 1555.46,313.96 1554,311.5C 1551.42,303.328 1548.92,295.161 1546.5,287C 1537.51,286.5 1528.51,286.334 1519.5,286.5C 1519.5,297.167 1519.5,307.833 1519.5,318.5C 1513.5,318.5 1507.5,318.5 1501.5,318.5C 1501.5,291.833 1501.5,265.167 1501.5,238.5C 1511.01,238.827 1520.35,238.494 1529.5,237.5 Z M 1519.5,256.5 C 1531.84,256.333 1544.17,256.5 1556.5,257C 1563.17,261.706 1562.84,266.039 1555.5,270C 1543.5,270.5 1531.5,270.667 1519.5,270.5C 1519.5,265.833 1519.5,261.167 1519.5,256.5 Z"/></g>
<g><path style="opacity:0.965" fill="#1d2958" d="M 846.5,238.5 C 854.196,238.169 861.862,238.503 869.5,239.5C 877,255.167 884.5,270.833 892,286.5C 899.5,270.833 907,255.167 914.5,239.5C 922.138,238.503 929.804,238.169 937.5,238.5C 937.5,265.167 937.5,291.833 937.5,318.5C 931.5,318.5 925.5,318.5 919.5,318.5C 919.667,303.163 919.5,287.83 919,272.5C 911.939,287.623 904.605,302.623 897,317.5C 893.667,318.833 890.333,318.833 887,317.5C 879.667,302.833 872.333,288.167 865,273.5C 864.5,288.496 864.333,303.496 864.5,318.5C 858.5,318.5 852.5,318.5 846.5,318.5C 846.5,291.833 846.5,265.167 846.5,238.5 Z"/></g>
<g><path style="opacity:0.958" fill="#1d2958" d="M 972.5,238.5 C 978.5,238.5 984.5,238.5 990.5,238.5C 990.5,265.167 990.5,291.833 990.5,318.5C 984.5,318.5 978.5,318.5 972.5,318.5C 972.5,291.833 972.5,265.167 972.5,238.5 Z"/></g>
<g><path style="opacity:0.964" fill="#1d2958" d="M 1024.5,238.5 C 1030.84,238.334 1037.18,238.5 1043.5,239C 1057.67,255.833 1071.83,272.667 1086,289.5C 1086.5,272.503 1086.67,255.503 1086.5,238.5C 1092.5,238.5 1098.5,238.5 1104.5,238.5C 1104.5,265.167 1104.5,291.833 1104.5,318.5C 1098.13,318.83 1091.8,318.496 1085.5,317.5C 1071.15,300.98 1056.98,284.314 1043,267.5C 1042.5,284.497 1042.33,301.497 1042.5,318.5C 1036.5,318.5 1030.5,318.5 1024.5,318.5C 1024.5,291.833 1024.5,265.167 1024.5,238.5 Z"/></g>
<g><path style="opacity:0.958" fill="#1d2958" d="M 1139.5,238.5 C 1145.5,238.5 1151.5,238.5 1157.5,238.5C 1157.5,265.167 1157.5,291.833 1157.5,318.5C 1151.5,318.5 1145.5,318.5 1139.5,318.5C 1139.5,291.833 1139.5,265.167 1139.5,238.5 Z"/></g>
<g><path style="opacity:0.977" fill="#1d2958" d="M 1285.5,238.5 C 1314.17,238.5 1342.83,238.5 1371.5,238.5C 1371.5,244.167 1371.5,249.833 1371.5,255.5C 1360.17,255.5 1348.83,255.5 1337.5,255.5C 1337.5,276.5 1337.5,297.5 1337.5,318.5C 1331.5,318.5 1325.5,318.5 1319.5,318.5C 1319.5,297.5 1319.5,276.5 1319.5,255.5C 1308.17,255.5 1296.83,255.5 1285.5,255.5C 1285.5,249.833 1285.5,244.167 1285.5,238.5 Z"/></g>
<g><path style="opacity:0.987" fill="#1d2958" d="M 1396.5,238.5 C 1421.17,238.5 1445.83,238.5 1470.5,238.5C 1470.5,244.167 1470.5,249.833 1470.5,255.5C 1451.83,255.5 1433.17,255.5 1414.5,255.5C 1414.5,259.833 1414.5,264.167 1414.5,268.5C 1429.83,268.5 1445.17,268.5 1460.5,268.5C 1460.5,274.5 1460.5,280.5 1460.5,286.5C 1445.17,286.5 1429.83,286.5 1414.5,286.5C 1414.5,291.5 1414.5,296.5 1414.5,301.5C 1434.17,301.5 1453.83,301.5 1473.5,301.5C 1473.5,307.167 1473.5,312.833 1473.5,318.5C 1447.83,318.5 1422.17,318.5 1396.5,318.5C 1396.5,291.833 1396.5,265.167 1396.5,238.5 Z"/></g>
<g><path style="opacity:0.958" fill="#1d2958" d="M 1613.5,238.5 C 1619.5,238.5 1625.5,238.5 1631.5,238.5C 1631.5,265.167 1631.5,291.833 1631.5,318.5C 1625.5,318.5 1619.5,318.5 1613.5,318.5C 1613.5,291.833 1613.5,265.167 1613.5,238.5 Z"/></g>
<g><path style="opacity:0.96" fill="#1d2958" d="M 1819.5,238.5 C 1836.17,238.333 1852.84,238.5 1869.5,239C 1889.62,243.398 1899.62,255.898 1899.5,276.5C 1900.2,293.606 1893.2,306.44 1878.5,315C 1872.79,317.594 1866.79,318.927 1860.5,319C 1846.84,319.5 1833.17,319.667 1819.5,319.5C 1819.5,292.5 1819.5,265.5 1819.5,238.5 Z M 1837.5,255.5 C 1847.29,255.144 1856.96,255.977 1866.5,258C 1879.16,264.312 1883,274.145 1878,287.5C 1874.5,295.003 1868.66,299.503 1860.5,301C 1852.84,301.5 1845.17,301.666 1837.5,301.5C 1837.5,286.167 1837.5,270.833 1837.5,255.5 Z"/></g>
<g><path style="opacity:0.987" fill="#1d2958" d="M 1928.5,238.5 C 1953.17,238.5 1977.83,238.5 2002.5,238.5C 2002.5,244.167 2002.5,249.833 2002.5,255.5C 1983.83,255.5 1965.17,255.5 1946.5,255.5C 1946.5,259.833 1946.5,264.167 1946.5,268.5C 1961.83,268.5 1977.17,268.5 1992.5,268.5C 1992.5,274.5 1992.5,280.5 1992.5,286.5C 1977.17,286.5 1961.83,286.5 1946.5,286.5C 1946.5,291.5 1946.5,296.5 1946.5,301.5C 1966.17,301.5 1985.83,301.5 2005.5,301.5C 2005.5,307.167 2005.5,312.833 2005.5,318.5C 1979.83,318.5 1954.17,318.5 1928.5,318.5C 1928.5,291.833 1928.5,265.167 1928.5,238.5 Z"/></g>
<g><path style="opacity:0.929" fill="#1d2958" d="M 2925.5,249.5 C 2938.75,247.437 2950.58,250.437 2961,258.5C 2963.36,261.893 2965.2,265.56 2966.5,269.5C 2966.39,270.442 2966.06,271.275 2965.5,272C 2962.59,273.037 2959.76,274.204 2957,275.5C 2950.27,262.689 2939.77,258.189 2925.5,262C 2913.03,268.12 2908.53,277.953 2912,291.5C 2917.94,303.939 2927.77,308.772 2941.5,306C 2949.17,303.667 2954.17,298.667 2956.5,291C 2948.84,290.5 2941.17,290.334 2933.5,290.5C 2933.5,287.167 2933.5,283.833 2933.5,280.5C 2945.5,280.5 2957.5,280.5 2969.5,280.5C 2967.52,310.966 2951.52,323.133 2921.5,317C 2902.87,308.918 2895.37,294.751 2899,274.5C 2902.89,260.771 2911.73,252.438 2925.5,249.5 Z"/></g>
<g><path style="opacity:0.922" fill="#1d2958" d="M 3014.5,249.5 C 3028.07,247.179 3039.9,250.513 3050,259.5C 3058.75,271.384 3060.75,284.384 3056,298.5C 3052.41,307.759 3045.91,313.925 3036.5,317C 3021.04,321.543 3007.54,318.376 2996,307.5C 2986.81,293.256 2986.15,278.59 2994,263.5C 2999.12,256.199 3005.95,251.533 3014.5,249.5 Z M 3018.5,260.5 C 3035.75,259.583 3045.08,267.75 3046.5,285C 3044.74,301.889 3035.4,309.223 3018.5,307C 3006.73,303.717 3000.73,295.884 3000.5,283.5C 3001.05,271.333 3007.05,263.667 3018.5,260.5 Z"/></g>
<g><path style="opacity:0.922" fill="#1d2958" d="M 3503.5,249.5 C 3517.07,247.179 3528.9,250.513 3539,259.5C 3547.75,271.384 3549.75,284.384 3545,298.5C 3541.41,307.759 3534.91,313.925 3525.5,317C 3510.04,321.543 3496.54,318.376 3485,307.5C 3475.81,293.256 3475.15,278.59 3483,263.5C 3488.12,256.199 3494.95,251.533 3503.5,249.5 Z M 3507.5,260.5 C 3524.75,259.583 3534.08,267.75 3535.5,285C 3533.74,301.889 3524.4,309.223 3507.5,307C 3495.73,303.717 3489.73,295.884 3489.5,283.5C 3490.05,271.333 3496.05,263.667 3507.5,260.5 Z"/></g>
<g><path style="opacity:0.96" fill="#1d2958" d="M 3082.5,251.5 C 3097.5,251.333 3112.5,251.5 3127.5,252C 3141.67,254.493 3146.5,262.66 3142,276.5C 3140.83,278.167 3139.67,279.833 3138.5,281.5C 3147.71,291.88 3147.38,302.047 3137.5,312C 3135.5,313 3133.5,314 3131.5,315C 3115.22,316.44 3098.89,316.94 3082.5,316.5C 3082.5,294.833 3082.5,273.167 3082.5,251.5 Z M 3093.5,262.5 C 3103.51,262.334 3113.51,262.5 3123.5,263C 3129.72,264.282 3131.56,267.782 3129,273.5C 3127.68,275.487 3125.85,276.654 3123.5,277C 3113.51,277.5 3103.51,277.666 3093.5,277.5C 3093.5,272.5 3093.5,267.5 3093.5,262.5 Z M 3093.5,288.5 C 3103.84,288.334 3114.17,288.5 3124.5,289C 3131.18,290.426 3133.35,294.259 3131,300.5C 3129.36,302.81 3127.2,304.31 3124.5,305C 3114.17,305.5 3103.84,305.666 3093.5,305.5C 3093.5,299.833 3093.5,294.167 3093.5,288.5 Z"/></g>
<g><path style="opacity:1" fill="#1d2958" d="M 3171.5,251.5 C 3175.17,251.5 3178.83,251.5 3182.5,251.5C 3182.5,273.167 3182.5,294.833 3182.5,316.5C 3178.83,316.5 3175.17,316.5 3171.5,316.5C 3171.5,294.833 3171.5,273.167 3171.5,251.5 Z"/></g>
<g><path style="opacity:0.99" fill="#1d2958" d="M 3212.5,251.5 C 3232.17,251.5 3251.83,251.5 3271.5,251.5C 3271.5,255.167 3271.5,258.833 3271.5,262.5C 3255.5,262.5 3239.5,262.5 3223.5,262.5C 3223.5,267.5 3223.5,272.5 3223.5,277.5C 3236.83,277.5 3250.17,277.5 3263.5,277.5C 3263.5,281.167 3263.5,284.833 3263.5,288.5C 3250.17,288.5 3236.83,288.5 3223.5,288.5C 3223.5,294.167 3223.5,299.833 3223.5,305.5C 3240.17,305.5 3256.83,305.5 3273.5,305.5C 3273.5,309.167 3273.5,312.833 3273.5,316.5C 3253.17,316.5 3232.83,316.5 3212.5,316.5C 3212.5,294.833 3212.5,273.167 3212.5,251.5 Z"/></g>
<g><path style="opacity:0.961" fill="#1d2958" d="M 3296.5,251.5 C 3313.17,251.333 3329.84,251.5 3346.5,252C 3361.35,256.547 3365.85,266.047 3360,280.5C 3356.75,285.371 3352.25,288.037 3346.5,288.5C 3347.23,294.198 3349.07,299.531 3352,304.5C 3354.9,306.745 3358.06,307.078 3361.5,305.5C 3362.49,309.445 3362.82,313.445 3362.5,317.5C 3356.75,318.891 3351.08,318.724 3345.5,317C 3339.48,309.099 3335.48,300.265 3333.5,290.5C 3324.83,290.5 3316.17,290.5 3307.5,290.5C 3307.5,299.167 3307.5,307.833 3307.5,316.5C 3303.83,316.5 3300.17,316.5 3296.5,316.5C 3296.5,294.833 3296.5,273.167 3296.5,251.5 Z M 3307.5,262.5 C 3318.17,262.333 3328.84,262.5 3339.5,263C 3344.69,263.192 3347.69,265.859 3348.5,271C 3346.75,275.749 3343.42,278.749 3338.5,280C 3328.17,280.5 3317.84,280.666 3307.5,280.5C 3307.5,274.5 3307.5,268.5 3307.5,262.5 Z"/></g>
<g><path style="opacity:0.969" fill="#1d2958" d="M 3387.5,251.5 C 3391.51,251.334 3395.51,251.501 3399.5,252C 3413.7,267.202 3427.54,282.702 3441,298.5C 3441.5,282.837 3441.67,267.17 3441.5,251.5C 3445.17,251.5 3448.83,251.5 3452.5,251.5C 3452.5,273.167 3452.5,294.833 3452.5,316.5C 3448.49,316.666 3444.49,316.499 3440.5,316C 3426.3,300.798 3412.46,285.298 3399,269.5C 3398.5,285.163 3398.33,300.83 3398.5,316.5C 3394.83,316.5 3391.17,316.5 3387.5,316.5C 3387.5,294.833 3387.5,273.167 3387.5,251.5 Z"/></g>
<g><path style="opacity:0.95" fill="#1d2958" d="M 873.5,347.5 C 881.174,347.334 888.841,347.5 896.5,348C 912.764,350.426 922.43,359.593 925.5,375.5C 920.313,377.005 915.147,378.672 910,380.5C 904.564,370.746 896.231,365.413 885,364.5C 863.041,368.079 855.708,380.412 863,401.5C 871.144,411.77 881.644,415.27 894.5,412C 903.14,409.193 908.473,403.36 910.5,394.5C 915.047,396.94 919.713,399.107 924.5,401C 923.64,416.223 915.64,425.89 900.5,430C 881.205,435.134 864.372,430.968 850,417.5C 841.189,405.92 838.189,392.92 841,378.5C 845.526,361.473 856.359,351.139 873.5,347.5 Z"/></g>
<g><path style="opacity:0.96" fill="#1d2958" d="M 1379.5,348.5 C 1390.87,348.241 1402.2,348.741 1413.5,350C 1432.91,356.187 1438.41,368.687 1430,387.5C 1426.15,391.312 1421.99,394.479 1417.5,397C 1418.93,402.29 1420.93,407.29 1423.5,412C 1426.75,413.644 1430.08,413.811 1433.5,412.5C 1433.5,418.5 1433.5,424.5 1433.5,430.5C 1425.29,433.282 1417.29,432.782 1409.5,429C 1407.29,427.127 1405.46,424.96 1404,422.5C 1401.42,414.328 1398.92,406.161 1396.5,398C 1387.51,397.5 1378.51,397.334 1369.5,397.5C 1369.5,408.167 1369.5,418.833 1369.5,429.5C 1363.5,429.5 1357.5,429.5 1351.5,429.5C 1351.5,402.833 1351.5,376.167 1351.5,349.5C 1361.01,349.827 1370.35,349.494 1379.5,348.5 Z M 1369.5,367.5 C 1381.84,367.333 1394.17,367.5 1406.5,368C 1413.17,372.706 1412.84,377.039 1405.5,381C 1393.5,381.5 1381.5,381.667 1369.5,381.5C 1369.5,376.833 1369.5,372.167 1369.5,367.5 Z"/></g>
<g><path style="opacity:0.958" fill="#1d2958" d="M 950.5,349.5 C 956.5,349.5 962.5,349.5 968.5,349.5C 968.333,366.837 968.5,384.17 969,401.5C 972.751,410.394 979.584,414.394 989.5,413.5C 999.416,414.394 1006.25,410.394 1010,401.5C 1010.5,384.17 1010.67,366.837 1010.5,349.5C 1016.5,349.5 1022.5,349.5 1028.5,349.5C 1028.97,370.234 1028.47,390.9 1027,411.5C 1018.9,426.136 1006.4,432.803 989.5,431.5C 972.598,432.803 960.098,426.136 952,411.5C 950.535,390.9 950.035,370.234 950.5,349.5 Z"/></g>
<g><path style="opacity:0.976" fill="#1d2958" d="M 1061.5,349.5 C 1067.5,349.5 1073.5,349.5 1079.5,349.5C 1079.5,370.5 1079.5,391.5 1079.5,412.5C 1097.5,412.5 1115.5,412.5 1133.5,412.5C 1133.5,418.167 1133.5,423.833 1133.5,429.5C 1109.5,429.5 1085.5,429.5 1061.5,429.5C 1061.5,402.833 1061.5,376.167 1061.5,349.5 Z"/></g>
<g><path style="opacity:0.977" fill="#1d2958" d="M 1132.5,349.5 C 1161.17,349.5 1189.83,349.5 1218.5,349.5C 1218.5,355.167 1218.5,360.833 1218.5,366.5C 1207.17,366.5 1195.83,366.5 1184.5,366.5C 1184.5,387.5 1184.5,408.5 1184.5,429.5C 1178.5,429.5 1172.5,429.5 1166.5,429.5C 1166.5,408.5 1166.5,387.5 1166.5,366.5C 1155.17,366.5 1143.83,366.5 1132.5,366.5C 1132.5,360.833 1132.5,355.167 1132.5,349.5 Z"/></g>
<g><path style="opacity:0.958" fill="#1d2958" d="M 1241.5,349.5 C 1247.5,349.5 1253.5,349.5 1259.5,349.5C 1259.33,366.837 1259.5,384.17 1260,401.5C 1263.75,410.394 1270.58,414.394 1280.5,413.5C 1290.42,414.394 1297.25,410.394 1301,401.5C 1301.5,384.17 1301.67,366.837 1301.5,349.5C 1307.5,349.5 1313.5,349.5 1319.5,349.5C 1319.97,370.234 1319.47,390.9 1318,411.5C 1309.9,426.136 1297.4,432.803 1280.5,431.5C 1263.6,432.803 1251.1,426.136 1243,411.5C 1241.53,390.9 1241.03,370.234 1241.5,349.5 Z"/></g>
<g><path style="opacity:0.964" fill="#1d2958" d="M 1491.5,349.5 C 1499.75,349.184 1507.92,349.518 1516,350.5C 1528.71,376.744 1541.54,402.91 1554.5,429C 1547.14,429.831 1539.81,429.665 1532.5,428.5C 1530.11,422.713 1527.44,417.046 1524.5,411.5C 1510.85,410.334 1497.18,410.167 1483.5,411C 1480.31,416.912 1477.31,422.912 1474.5,429C 1467.48,429.831 1460.48,429.664 1453.5,428.5C 1466.46,402.256 1479.12,375.922 1491.5,349.5 Z M 1502.5,370.5 C 1503.68,370.281 1504.68,370.614 1505.5,371.5C 1508.83,378.5 1512.17,385.5 1515.5,392.5C 1507.52,393.665 1499.52,393.832 1491.5,393C 1495.07,385.444 1498.74,377.944 1502.5,370.5 Z"/></g>
<g><path style="opacity:0.95" fill="#1d2958" d="M 1610.5,350.5 C 1618.32,349.344 1626.32,349.177 1634.5,350C 1643.33,361.5 1652.17,373 1661,384.5C 1670.07,373.348 1678.91,362.014 1687.5,350.5C 1695.48,349.335 1703.48,349.168 1711.5,350C 1698.7,367.105 1685.53,383.939 1672,400.5C 1670.55,410.061 1670.05,419.727 1670.5,429.5C 1664.5,429.5 1658.5,429.5 1652.5,429.5C 1652.95,420.06 1652.45,410.726 1651,401.5C 1637.48,384.431 1623.98,367.431 1610.5,350.5 Z"/></g>
<g><path style="opacity:0.952" fill="#1d2958" d="M 1827.5,349.5 C 1833.5,349.5 1839.5,349.5 1845.5,349.5C 1845.67,367.836 1845.5,386.17 1845,404.5C 1843.34,417.662 1836.17,426.162 1823.5,430C 1814.9,431.542 1806.23,431.876 1797.5,431C 1779.64,427.122 1771.31,416.455 1772.5,399C 1777.43,397.19 1782.43,395.69 1787.5,394.5C 1790.23,409.546 1799.23,415.713 1814.5,413C 1823.42,410.7 1827.58,404.866 1827,395.5C 1827.5,380.17 1827.67,364.837 1827.5,349.5 Z"/></g>
<g><path style="opacity:0.958" fill="#1d2958" d="M 1876.5,349.5 C 1882.5,349.5 1888.5,349.5 1894.5,349.5C 1894.33,366.837 1894.5,384.17 1895,401.5C 1898.75,410.394 1905.58,414.394 1915.5,413.5C 1925.42,414.394 1932.25,410.394 1936,401.5C 1936.5,384.17 1936.67,366.837 1936.5,349.5C 1942.5,349.5 1948.5,349.5 1954.5,349.5C 1954.97,370.234 1954.47,390.9 1953,411.5C 1944.9,426.136 1932.4,432.803 1915.5,431.5C 1898.6,432.803 1886.1,426.136 1878,411.5C 1876.53,390.9 1876.03,370.234 1876.5,349.5 Z"/></g>
<g><path style="opacity:0.952" fill="#1d2958" d="M 1975.5,349.5 C 1982.53,349.17 1989.53,349.503 1996.5,350.5C 2006,370.167 2015.5,389.833 2025,409.5C 2035.04,390.042 2044.71,370.376 2054,350.5C 2061.09,349.354 2068.25,349.188 2075.5,350C 2062.21,376.089 2049.04,402.256 2036,428.5C 2028.89,429.812 2021.72,429.812 2014.5,428.5C 2001.22,402.268 1988.22,375.935 1975.5,349.5 Z"/></g>
<g><path style="opacity:0.987" fill="#1d2958" d="M 2099.5,349.5 C 2124.17,349.5 2148.83,349.5 2173.5,349.5C 2173.5,355.167 2173.5,360.833 2173.5,366.5C 2154.83,366.5 2136.17,366.5 2117.5,366.5C 2117.5,370.833 2117.5,375.167 2117.5,379.5C 2132.83,379.5 2148.17,379.5 2163.5,379.5C 2163.5,385.5 2163.5,391.5 2163.5,397.5C 2148.17,397.5 2132.83,397.5 2117.5,397.5C 2117.5,402.5 2117.5,407.5 2117.5,412.5C 2137.17,412.5 2156.83,412.5 2176.5,412.5C 2176.5,418.167 2176.5,423.833 2176.5,429.5C 2150.83,429.5 2125.17,429.5 2099.5,429.5C 2099.5,402.833 2099.5,376.167 2099.5,349.5 Z"/></g>
<g><path style="opacity:0.964" fill="#1d2958" d="M 2204.5,349.5 C 2210.84,349.334 2217.18,349.5 2223.5,350C 2237.67,366.833 2251.83,383.667 2266,400.5C 2266.5,383.503 2266.67,366.503 2266.5,349.5C 2272.5,349.5 2278.5,349.5 2284.5,349.5C 2284.5,376.167 2284.5,402.833 2284.5,429.5C 2278.13,429.83 2271.8,429.496 2265.5,428.5C 2251.15,411.98 2236.98,395.314 2223,378.5C 2222.5,395.497 2222.33,412.497 2222.5,429.5C 2216.5,429.5 2210.5,429.5 2204.5,429.5C 2204.5,402.833 2204.5,376.167 2204.5,349.5 Z"/></g>
<g><path style="opacity:0.977" fill="#1d2958" d="M 2309.5,349.5 C 2338.17,349.5 2366.83,349.5 2395.5,349.5C 2395.5,355.167 2395.5,360.833 2395.5,366.5C 2384.17,366.5 2372.83,366.5 2361.5,366.5C 2361.5,387.5 2361.5,408.5 2361.5,429.5C 2355.5,429.5 2349.5,429.5 2343.5,429.5C 2343.5,408.5 2343.5,387.5 2343.5,366.5C 2332.17,366.5 2320.83,366.5 2309.5,366.5C 2309.5,360.833 2309.5,355.167 2309.5,349.5 Z"/></g>
<g><path style="opacity:0.958" fill="#1d2958" d="M 2417.5,349.5 C 2423.5,349.5 2429.5,349.5 2435.5,349.5C 2435.33,366.837 2435.5,384.17 2436,401.5C 2439.75,410.394 2446.58,414.394 2456.5,413.5C 2466.42,414.394 2473.25,410.394 2477,401.5C 2477.5,384.17 2477.67,366.837 2477.5,349.5C 2483.5,349.5 2489.5,349.5 2495.5,349.5C 2495.97,370.234 2495.47,390.9 2494,411.5C 2485.9,426.136 2473.4,432.803 2456.5,431.5C 2439.6,432.803 2427.1,426.136 2419,411.5C 2417.53,390.9 2417.03,370.234 2417.5,349.5 Z"/></g>
<g><path style="opacity:0.96" fill="#1d2958" d="M 2528.5,349.5 C 2545.17,349.333 2561.84,349.5 2578.5,350C 2598.62,354.398 2608.62,366.898 2608.5,387.5C 2609.2,404.606 2602.2,417.44 2587.5,426C 2581.79,428.594 2575.79,429.927 2569.5,430C 2555.84,430.5 2542.17,430.667 2528.5,430.5C 2528.5,403.5 2528.5,376.5 2528.5,349.5 Z M 2546.5,366.5 C 2556.29,366.144 2565.96,366.977 2575.5,369C 2588.16,375.312 2592,385.145 2587,398.5C 2583.5,406.003 2577.66,410.503 2569.5,412C 2561.84,412.5 2554.17,412.666 2546.5,412.5C 2546.5,397.167 2546.5,381.833 2546.5,366.5 Z"/></g>
<g><path style="opacity:0.923" fill="#1d2958" d="M 3136.5,361.5 C 3142.84,361.334 3149.18,361.5 3155.5,362C 3168.31,364.313 3175.98,371.813 3178.5,384.5C 3175.19,384.993 3172.02,385.993 3169,387.5C 3159.42,372.642 3146.58,369.142 3130.5,377C 3118.62,389.297 3118.62,401.63 3130.5,414C 3140.87,419.995 3151.2,419.995 3161.5,414C 3165.16,410.503 3167.66,406.336 3169,401.5C 3172.35,403.157 3175.51,404.99 3178.5,407C 3173.96,423.623 3162.96,431.457 3145.5,430.5C 3118.49,428.302 3106.65,413.635 3110,386.5C 3113.87,372.798 3122.7,364.465 3136.5,361.5 Z"/></g>
<g><path style="opacity:0.922" fill="#1d2958" d="M 3223.5,361.5 C 3237.07,359.179 3248.9,362.513 3259,371.5C 3267.75,383.384 3269.75,396.384 3265,410.5C 3261.41,419.759 3254.91,425.925 3245.5,429C 3230.04,433.543 3216.54,430.376 3205,419.5C 3195.81,405.256 3195.15,390.59 3203,375.5C 3208.12,368.199 3214.95,363.533 3223.5,361.5 Z M 3227.5,372.5 C 3244.75,371.583 3254.08,379.75 3255.5,397C 3253.74,413.889 3244.4,421.223 3227.5,419C 3215.73,415.717 3209.73,407.884 3209.5,395.5C 3210.05,383.333 3216.05,375.667 3227.5,372.5 Z"/></g>
<g><path style="opacity:0.924" fill="#1d2958" d="M 3309.5,361.5 C 3318.99,360.895 3328.33,361.729 3337.5,364C 3346.07,367.023 3350.4,372.857 3350.5,381.5C 3347.96,382.402 3345.46,383.402 3343,384.5C 3340.64,381.673 3338.14,378.839 3335.5,376C 3325.15,371.373 3314.82,371.373 3304.5,376C 3299.04,382.442 3300.7,386.442 3309.5,388C 3320.66,388.711 3331.66,390.377 3342.5,393C 3352.02,397.225 3355.19,404.392 3352,414.5C 3347.68,423.472 3340.51,428.638 3330.5,430C 3318.77,431.622 3307.43,430.288 3296.5,426C 3291.65,422.473 3288.32,417.807 3286.5,412C 3289.67,409.913 3293.01,408.079 3296.5,406.5C 3299.62,412.787 3304.62,416.62 3311.5,418C 3319.33,419.032 3327,418.365 3334.5,416C 3341.47,411.873 3341.8,407.539 3335.5,403C 3324.92,401.101 3314.26,399.767 3303.5,399C 3288.28,395.727 3283.78,386.894 3290,372.5C 3295.33,366.591 3301.83,362.925 3309.5,361.5 Z"/></g>
<g><path style="opacity:0.923" fill="#1d2958" d="M 3732.5,361.5 C 3738.84,361.334 3745.18,361.5 3751.5,362C 3764.31,364.313 3771.98,371.813 3774.5,384.5C 3771.19,384.993 3768.02,385.993 3765,387.5C 3755.42,372.642 3742.58,369.142 3726.5,377C 3714.62,389.297 3714.62,401.63 3726.5,414C 3736.87,419.995 3747.2,419.995 3757.5,414C 3761.16,410.503 3763.66,406.336 3765,401.5C 3768.35,403.157 3771.51,404.99 3774.5,407C 3769.96,423.623 3758.96,431.457 3741.5,430.5C 3714.49,428.302 3702.65,413.635 3706,386.5C 3709.87,372.798 3718.7,364.465 3732.5,361.5 Z"/></g>
<g><path style="opacity:0.957" fill="#1d2958" d="M 2903.5,363.5 C 2917.17,363.333 2930.84,363.5 2944.5,364C 2960.5,367.807 2968.5,377.974 2968.5,394.5C 2968.63,412.179 2960.3,423.345 2943.5,428C 2930.17,428.5 2916.84,428.667 2903.5,428.5C 2903.5,406.833 2903.5,385.167 2903.5,363.5 Z M 2914.5,374.5 C 2923.89,374.147 2933.22,374.647 2942.5,376C 2951.39,379.22 2956.05,385.554 2956.5,395C 2955.69,406.138 2950.02,413.471 2939.5,417C 2931.17,417.5 2922.84,417.666 2914.5,417.5C 2914.5,403.167 2914.5,388.833 2914.5,374.5 Z"/></g>
<g><path style="opacity:0.99" fill="#1d2958" d="M 2993.5,363.5 C 3013.17,363.5 3032.83,363.5 3052.5,363.5C 3052.5,367.167 3052.5,370.833 3052.5,374.5C 3036.5,374.5 3020.5,374.5 3004.5,374.5C 3004.5,379.5 3004.5,384.5 3004.5,389.5C 3017.83,389.5 3031.17,389.5 3044.5,389.5C 3044.5,393.167 3044.5,396.833 3044.5,400.5C 3031.17,400.5 3017.83,400.5 3004.5,400.5C 3004.5,406.167 3004.5,411.833 3004.5,417.5C 3021.17,417.5 3037.83,417.5 3054.5,417.5C 3054.5,421.167 3054.5,424.833 3054.5,428.5C 3034.17,428.5 3013.83,428.5 2993.5,428.5C 2993.5,406.833 2993.5,385.167 2993.5,363.5 Z"/></g>
<g><path style="opacity:0.996" fill="#1d2958" d="M 3368.5,363.5 C 3391.5,363.5 3414.5,363.5 3437.5,363.5C 3437.5,367.167 3437.5,370.833 3437.5,374.5C 3427.83,374.5 3418.17,374.5 3408.5,374.5C 3408.5,392.5 3408.5,410.5 3408.5,428.5C 3404.83,428.5 3401.17,428.5 3397.5,428.5C 3397.5,410.5 3397.5,392.5 3397.5,374.5C 3387.83,374.5 3378.17,374.5 3368.5,374.5C 3368.5,370.833 3368.5,367.167 3368.5,363.5 Z"/></g>
<g><path style="opacity:0.934" fill="#1d2958" d="M 3474.5,363.5 C 3479.87,363.172 3485.21,363.505 3490.5,364.5C 3500.56,385.623 3510.89,406.623 3521.5,427.5C 3517.2,428.661 3512.87,428.828 3508.5,428C 3505.5,422.333 3502.5,416.667 3499.5,411C 3488.17,410.333 3476.83,410.333 3465.5,411C 3462.5,416.667 3459.5,422.333 3456.5,428C 3452.13,428.828 3447.8,428.661 3443.5,427.5C 3453.84,406.145 3464.18,384.811 3474.5,363.5 Z M 3481.5,376.5 C 3486.47,383.1 3490.47,390.433 3493.5,398.5C 3485.85,399.665 3478.19,399.831 3470.5,399C 3474.58,391.673 3478.25,384.173 3481.5,376.5 Z"/></g>
<g><path style="opacity:0.961" fill="#1d2958" d="M 3578.5,363.5 C 3595.17,363.333 3611.84,363.5 3628.5,364C 3643.35,368.547 3647.85,378.047 3642,392.5C 3638.75,397.371 3634.25,400.037 3628.5,400.5C 3629.23,406.198 3631.07,411.531 3634,416.5C 3636.9,418.745 3640.06,419.078 3643.5,417.5C 3644.49,421.445 3644.82,425.445 3644.5,429.5C 3638.75,430.891 3633.08,430.724 3627.5,429C 3621.48,421.099 3617.48,412.265 3615.5,402.5C 3606.83,402.5 3598.17,402.5 3589.5,402.5C 3589.5,411.167 3589.5,419.833 3589.5,428.5C 3585.83,428.5 3582.17,428.5 3578.5,428.5C 3578.5,406.833 3578.5,385.167 3578.5,363.5 Z M 3589.5,374.5 C 3600.17,374.333 3610.84,374.5 3621.5,375C 3626.69,375.192 3629.69,377.859 3630.5,383C 3628.75,387.749 3625.42,390.749 3620.5,392C 3610.17,392.5 3599.84,392.666 3589.5,392.5C 3589.5,386.5 3589.5,380.5 3589.5,374.5 Z"/></g>
<g><path style="opacity:1" fill="#1d2958" d="M 3669.5,363.5 C 3673.17,363.5 3676.83,363.5 3680.5,363.5C 3680.5,385.167 3680.5,406.833 3680.5,428.5C 3676.83,428.5 3673.17,428.5 3669.5,428.5C 3669.5,406.833 3669.5,385.167 3669.5,363.5 Z"/></g>
<g><path style="opacity:0.934" fill="#1d2958" d="M 3819.5,363.5 C 3824.87,363.172 3830.21,363.505 3835.5,364.5C 3845.56,385.623 3855.89,406.623 3866.5,427.5C 3862.2,428.661 3857.87,428.828 3853.5,428C 3850.5,422.333 3847.5,416.667 3844.5,411C 3833.17,410.333 3821.83,410.333 3810.5,411C 3807.5,416.667 3804.5,422.333 3801.5,428C 3797.13,428.828 3792.8,428.661 3788.5,427.5C 3798.84,406.145 3809.18,384.811 3819.5,363.5 Z M 3826.5,376.5 C 3831.47,383.1 3835.47,390.433 3838.5,398.5C 3830.85,399.665 3823.19,399.831 3815.5,399C 3819.58,391.673 3823.25,384.173 3826.5,376.5 Z"/></g>
<g><path style="opacity:1" fill="#4d485f" d="M 633.5,462.5 C 634.488,467.64 634.821,472.974 634.5,478.5C 632.901,478.768 631.568,478.434 630.5,477.5C 631.5,477.5 632.5,477.5 633.5,477.5C 633.5,472.5 633.5,467.5 633.5,462.5 Z"/></g>
</svg>
