<svg xmlns="http://www.w3.org/2000/svg" width="320" height="105" viewBox="0 0 320 105">
    <path d="M290.963 29.12l.395-.394-1.504-1.504-.44.44c-.713.713-1.492.746-2.096.142-.593-.593-.56-1.372.154-2.086l2.91-2.91c.7-.7 1.492-.745 2.084-.152.604.604.56 1.394-.142 2.097l-.33.33 1.504 1.504.318-.318c1.56-1.56 1.493-3.52.044-4.97-1.47-1.47-3.524-1.57-5.083-.01l-2.854 2.85c-1.56 1.56-1.482 3.54 0 5.02 1.45 1.45 3.48 1.5 5.04-.06zm-10.75-5.87l7.686-7.685 1.6 1.603-7.69 7.685zM41.74 79.14l-1.924-1.925-8.608 8.608 2.278 2.278c2.43 2.44 2.48 5.12.506 7.09-1.974 1.98-4.657 1.93-7.088-.5L13.738 81.52c-2.43-2.43-2.48-5.114-.507-7.088 1.98-1.974 4.66-1.922 7.09.507l1.78 1.77 8.6-8.61-1.62-1.62c-7.29-7.29-16.76-6.84-23.59 0-6.98 6.98-7.54 16.96-.25 24.25l12.66 12.66c.55.54 1.11 1.04 1.67 1.49h20.2c.68-.53 1.34-1.12 1.98-1.75 6.84-6.84 7.29-16.71 0-24zm260.2-64.462c-1 1-1.054 2.48-.68 4.018.33 1.34.45 2.14-.133 2.722-.472.472-1.12.46-1.624-.043-.833-.835-.11-2.35-.11-2.35l-1.766-.757s-1.394 2.426.593 4.413c1.328 1.33 3.172 1.57 4.556.19 1.11-1.11 1.032-2.65.648-4.22-.307-1.23-.383-1.96.144-2.49.406-.4 1-.34 1.416.08.778.78.164 1.92.164 1.92l1.767.76s1.254-2.08-.67-4.01c-1.25-1.25-3.083-1.44-4.3-.22zM312.455 36.7l5.335-10.035-1.47-1.47-10.046 5.324 1.537 1.53 2.09-1.19 2.12 2.12-1.18 2.08 1.63 1.62zm-1.11-6.71l3.536-1.997-1.99 3.535-1.53-1.537zm-157.933-6.363l12.153 12.153c7.442 7.442 17.214 6.884 24.354-.255 7.13-7.138 7.69-17.315.25-24.758L179.4 0h-26.79c-6.12 7.053-6.26 16.57.797 23.627zm8-16.81c2.127-2.128 5.014-2.077 7.596.506l12.658 12.658c2.58 2.59 2.632 5.47.506 7.6-2.127 2.13-5.013 2.08-7.594-.5L161.92 14.41c-2.583-2.583-2.634-5.47-.507-7.596zM201.6 78.273L190.966 67.64c-7.9-7.9-17.266-7.343-24.86.252L154.358 79.64l25.248 25.248h20.39l1.35-1.35c7.593-7.594 8.15-17.366.25-25.265zm-8.253 17.57l-2.53 2.53-19.747-19.746 2.53-2.53c2.583-2.583 5.57-2.533 8.61.505l10.632 10.633c3.036 3.037 3.087 6.025.505 8.608zm8.89-63.953L181.87 52.256 217.313 87.7l20.253-20.253-7.847-7.848-11.4 11.39-6.59-6.59 9.11-9.12-7.34-7.34-9.12 9.11-5.82-5.83 11.5-11.51m94.75-10.66l6.28-6.28 1.6 1.6 1.4-1.407-4.776-4.774-1.406 1.41 1.613 1.615-6.28 6.28m-7.8 10.987l5.34-10.038-1.47-1.47-10.046 5.324 1.54 1.54 2.09-1.18 2.12 2.12-1.187 2.08 1.627 1.63zm-1.11-6.71l3.537-2-1.993 3.534-1.535-1.536zM300 49.1l-18.33 18.33L291.905 41l-8.61-8.61-35.44 35.45 8.1 8.102 19.447-19.44-10.83 28.05 8.1 8.1 35.45-35.44m-64.745 15.81l-31.863 31.863h16l23.86-23.86M81.5 71.795l-33.09 33.09h16.004l25.09-25.09m141.628-76.58l-12.658 12.66c-7.292 7.29-6.735 16.86.253 23.848 6.836 6.836 16.71 7.29 24 0l1.923-1.923-8.608-8.608-2.278 2.278c-2.43 2.43-5.114 2.48-7.09.506-1.973-1.974-1.923-4.657.508-7.088l13.164-13.164c2.43-2.43 5.114-2.48 7.088-.507 1.975 1.975 1.923 4.66-.506 7.09l-1.772 1.77 8.608 8.61 1.62-1.62c7.29-7.29 6.836-16.76 0-23.595a19.845 19.845 0 0 0-4.63-3.47h-15.388c-1.477.815-2.9 1.883-4.234 3.216zM312.06 61.16l-35.443 35.443 8.286 8.285h15.695l-7.272-7.27 6.583-6.584 9.11 9.113 7.34-7.342-9.12-9.113 5.82-5.822 6.93 6.927V69.1M40.69 6.848L0 47.538v16.006L48.693 14.85M21.51 51.466L56.955 86.91l19.81-19.812-7.846-7.847L57.97 70.2l-6.584-6.58 9.114-9.115-7.343-7.342-9.114 9.114-5.82-5.822 11.137-11.14-7.85-7.848m67.782 3L143.762 0h-16.006L101.29 26.466M244.15 64.14l-9.114-9.115L270.48 19.58l9.113 9.115zm37.22-55.108l-7.686 7.685 1.548 1.548 2.788-2.788.57.57c.034.033.22.22.275.253l-1.767 3.832 1.745 1.745 1.866-4.567c1.12.33 2.32.044 3.21-.845 1.4-1.405 1.39-3.48-.13-5.006l-2.43-2.43zm.92 5.95c-.67.67-1.657.714-2.37 0l-.702-.702 2.37-2.37.715.713c.724.724.67 1.68-.012 2.36zm5.937-13.027l-2.854 2.854c-1.56 1.55-1.482 3.54 0 5.02 1.45 1.45 3.48 1.5 5.04-.06l.394-.4-1.504-1.51-.44.44c-.713.71-1.492.74-2.096.14-.593-.6-.56-1.38.154-2.09l2.91-2.91c.71-.7 1.5-.75 2.09-.16.61.603.56 1.393-.14 2.1l-.33.33 1.51 1.5.32-.316c1.56-1.56 1.5-3.514.05-4.96-1.47-1.47-3.52-1.57-5.08-.01zM164.643 59.79l9.873-9.874-20.15-9.013c1.012-4.96-.457-10.076-4.457-14.076-6.79-6.785-16.46-6.735-23.55.354l-12.1 12.11 35.44 35.44 8.86-8.86-12.16-12.15 2.28-2.28 15.95 8.36zM141.656 44.8l-2.076 2.077-8.86-8.86 2.177-2.177c2.582-2.582 5.975-2.33 8.558.253 2.58 2.58 2.783 6.126.2 8.708zm153.06-36.248l-2.746 2.745c-1.592 1.592-1.515 3.622 0 5.137 1.504 1.504 3.6 1.58 5.192-.01l2.745-2.746c1.592-1.592 1.515-3.6 0-5.116-1.504-1.503-3.6-1.6-5.192-.01zm3.654 3.568l-2.8 2.8c-.746.746-1.57.778-2.206.142-.626-.626-.593-1.45.154-2.196l2.8-2.8c.735-.735 1.57-.778 2.195-.153.636.637.593 1.472-.143 2.207zM110.157 42.982l-25 25 8.102 8.1 8.14-8.14 27.53 27.53 8.86-8.86-27.53-27.53 7.99-8M45.18 27.796L80.624 63.24l8.1-8.102-19.442-19.442 28.05 10.835 8.102-8.1L69.99 2.99l-8.1 8.1 18.33 18.33-26.433-10.23"/>
</svg>
